<svg id="visual" viewBox="0 0 1920 450" width="1920" height="450" xmlns="http://www.w3.org/2000/svg" xmlns:xlink="http://www.w3.org/1999/xlink" version="1.1"><path d="M0 391L80 396.8C160 402.7 320 414.3 480 413.5C640 412.7 800 399.3 960 394.3C1120 389.3 1280 392.7 1440 394.7C1600 396.7 1760 397.3 1840 397.7L1920 398L1920 451L1840 451C1760 451 1600 451 1440 451C1280 451 1120 451 960 451C800 451 640 451 480 451C320 451 160 451 80 451L0 451Z" fill="#0066FF" stroke-linecap="round" stroke-linejoin="miter"></path></svg>