<svg id="visual" viewBox="0 0 1000 450" width="1000" height="450" xmlns="http://www.w3.org/2000/svg" xmlns:xlink="http://www.w3.org/1999/xlink" version="1.1"><path d="M0 391L41.7 396.8C83.3 402.7 166.7 414.3 250 413.5C333.3 412.7 416.7 399.3 500 394.3C583.3 389.3 666.7 392.7 750 394.7C833.3 396.7 916.7 397.3 958.3 397.7L1000 398L1000 451L958.3 451C916.7 451 833.3 451 750 451C666.7 451 583.3 451 500 451C416.7 451 333.3 451 250 451C166.7 451 83.3 451 41.7 451L0 451Z" fill="#0066FF" stroke-linecap="round" stroke-linejoin="miter"></path></svg>